#!OML:ASF X:\für Bonn\!DataBase\2005_08_10_Bjorn_Final\c3d\bjorn.ASF
:FULLY-SPECIFIED
:DEGREES
122
root -21.0327 17.5387 -15.1244 -355.712 362.558 -373.612
lowerback 4.55195 3.16313 12.9988
upperback 9.70223 4.01632 3.01547
thorax 8.62121 2.83589 -3.82082
lowerneck -10.3554 2.22716 2.3861
upperneck 0.41214 2.86748 -4.8263
head 2.04602 1.30632 -1.82718
rclavicle -7.38982e-014 1.38155e-014
rhumerus -14.5208 9.0601 -93.327
rradius 81.0478
rwrist -5.44027
rhand -27.8227 24.9376
rfingers 7.12502
rthumb -1.21472 -5.03873
lclavicle -7.38982e-014 1.38155e-014
lhumerus -52.3826 -24.7016 102.856
lradius 79.2111
lwrist -0.0556644
lhand -54.1826 -30.4879
lfingers 7.12502
lthumb -26.5981 -2.33591
rfemur -15.6192 -2.77168 26.3876
rtibia 49.2039
rfoot -32.5214 17.8283
rtoes -19.6068
lfemur -27.7741 9.82995 -7.25286
ltibia 87.5361
lfoot -14.3776 7.81117
ltoes -20.1156
123
root -20.9741 17.5751 -14.8856 -355.778 362.766 -373.404
lowerback 4.48469 3.40756 12.7251
upperback 9.56571 4.34917 2.9872
thorax 8.53179 2.97151 -3.68857
lowerneck -10.3632 2.11344 2.47928
upperneck 0.663958 2.71665 -4.92225
head 2.12993 1.22606 -1.88471
rclavicle 3.7123e-014 1.43125e-014
rhumerus -13.9205 9.69707 -93.3772
rradius 81.9019
rwrist -5.14471
rhand -28.1016 24.4937
rfingers 7.12502
rthumb -1.48406 -5.48088
lclavicle 3.7123e-014 1.43125e-014
lhumerus -53.2021 -23.749 102.696
lradius 79.3702
lwrist -0.358493
lhand -54.1545 -30.3652
lfingers 7.12502
lthumb -26.5712 -2.20916
rfemur -13.9749 -2.76126 25.9769
rtibia 47.8781
rfoot -32.7172 17.5385
rtoes -20.5787
lfemur -29.4846 9.99625 -8.0627
ltibia 86.8402
lfoot -15.6417 8.16901
ltoes -21.9843
124
root -20.9112 17.6233 -14.6424 -355.808 362.997 -373.19
lowerback 4.33449 3.68683 12.4898
upperback 9.43816 4.71907 2.885
thorax 8.51746 3.13586 -3.64549
lowerneck -10.3081 1.96703 2.58786
upperneck 0.843656 2.51576 -4.94586
head 2.17464 1.12468 -1.92384
rclavicle -8.01599e-014 -1.05356e-014
rhumerus -13.2674 10.0511 -93.5506
rradius 82.7023
rwrist -4.71619
rhand -28.3017 24.4303
rfingers 7.12502
rthumb -1.67727 -5.54281
lclavicle -8.01599e-014 -1.05356e-014
lhumerus -53.9096 -23.0652 102.423
lradius 79.599
lwrist -0.813127
lhand -54.3491 -30.2348
lfingers 7.12502
lthumb -26.7574 -2.10706
rfemur -12.3262 -2.70232 25.573
rtibia 46.4216
rfoot -32.6805 17.1765
rtoes -21.6445
lfemur -31.1049 10.039 -8.87639
ltibia 85.8649
lfoot -16.9473 8.2623
ltoes -22.5059
125
root -20.8441 17.6785 -14.3969 -355.781 363.236 -372.918
lowerback 4.11972 4.00024 12.2276
upperback 9.31331 5.12968 2.70895
thorax 8.55397 3.32415 -3.65642
lowerneck -10.3171 1.78573 2.7016
upperneck 1.07952 2.26468 -4.88247
head 2.24565 0.999793 -1.9382
rclavicle -5.46658e-015 -3.07122e-014
rhumerus -12.6224 10.2294 -93.8265
rradius 83.4765
rwrist -4.13964
rhand -28.5305 24.6693
rfingers 7.12502
rthumb -1.89823 -5.30202
lclavicle -5.46658e-015 -3.07122e-014
lhumerus -54.4498 -22.6281 102.076
lradius 79.784
lwrist -1.34452
lhand -54.6657 -30.3792
lfingers 7.12502
lthumb -27.0604 -2.2982
rfemur -10.6811 -2.66851 25.0952
rtibia 44.8164
rfoot -32.2214 16.9658
rtoes -22.3253
lfemur -32.6964 10.0064 -9.75903
ltibia 84.6727
lfoot -18.2187 8.04318
ltoes -21.1182
126
root -20.7733 17.7373 -14.1495 -355.642 363.523 -372.577
lowerback 3.79152 4.31798 11.91
upperback 9.14712 5.53744 2.48396
thorax 8.6067 3.50808 -3.68026
lowerneck -10.2519 1.62325 3.04112
upperneck 1.26248 2.01459 -4.92428
head 2.29176 0.875478 -2.0285
rclavicle -4.59193e-014 -7.05686e-015
rhumerus -12.1111 10.3914 -94.0524
rradius 84.3063
rwrist -3.64929
rhand -28.6716 25.1746
rfingers 7.12502
rthumb -2.03459 -4.7954
lclavicle -4.59193e-014 -7.05686e-015
lhumerus -54.9787 -22.2996 101.698
lradius 79.9682
lwrist -2.06716
lhand -55.1058 -30.3361
lfingers 7.12502
lthumb -27.4813 -2.32124
rfemur -9.08176 -2.68995 24.5414
rtibia 43.0702
rfoot -31.5689 16.715
rtoes -23.0836
lfemur -34.2977 9.87737 -10.7487
ltibia 83.2184
lfoot -19.2337 7.65983
ltoes -19.1001
